<svg width="163" height="43" viewBox="0 0 163 43" fill="none" xmlns="http://www.w3.org/2000/svg">
<path fill-rule="evenodd" clip-rule="evenodd" d="M18.0559 10.102C19.9997 10.102 21.5805 8.51729 21.5805 6.57738C21.5805 4.63746 19.9958 3.05664 18.0559 3.05664C16.1121 3.05664 14.5312 4.63746 14.5312 6.57738C14.5312 8.5212 16.1121 10.102 18.0559 10.102Z" fill="white"/>
<path d="M22.7487 29.7242C22.5497 29.7242 22.3467 29.6852 22.1515 29.6032L17.4911 27.6633C16.6987 27.3316 16.324 26.4221 16.6519 25.6297C16.9836 24.8374 17.8931 24.4627 18.6855 24.7905L23.3459 26.7304C24.1383 27.0622 24.513 27.9717 24.1851 28.764C23.9353 29.3651 23.3576 29.7242 22.7487 29.7242Z" fill="white"/>
<path d="M23.3685 24.8292C23.1695 24.8292 22.9665 24.7901 22.7713 24.7082L16.3856 22.05C15.5932 21.7183 15.2185 20.8088 15.5464 20.0165C15.8782 19.2241 16.7876 18.8494 17.58 19.1773L23.9657 21.8354C24.7581 22.1671 25.1328 23.0766 24.8049 23.869C24.559 24.4701 23.9774 24.8292 23.3685 24.8292Z" fill="white"/>
<path d="M23.4663 19.9042C23.2672 19.9042 23.0643 19.8652 22.8691 19.7832L19.1961 18.2532C18.4038 17.9214 18.0291 17.0119 18.3569 16.2196C18.6887 15.4272 19.5982 15.0525 20.3905 15.3804L24.0635 16.9105C24.8559 17.2422 25.2306 18.1517 24.9027 18.944C24.6529 19.5451 24.0752 19.9042 23.4663 19.9042Z" fill="white"/>
<path d="M1.5548 42.5C1.22302 42.5 0.89124 42.3946 0.610206 42.1799C-0.0728632 41.6569 -0.201671 40.6811 0.321364 39.998L12.8703 23.6239C13.3934 22.9408 14.3692 22.812 15.0522 23.335C15.7353 23.8581 15.8641 24.8339 15.3411 25.517L2.79213 41.8911C2.48377 42.2892 2.01928 42.5 1.5548 42.5Z" fill="white"/>
<path d="M19.7892 18.3734C19.4574 18.3734 19.1256 18.2681 18.8446 18.0534C18.1615 17.5303 18.0327 16.5545 18.5557 15.8715L20.9758 12.7137C21.4988 12.0307 22.4746 11.9018 23.1577 12.4249C23.8407 12.9479 23.9696 13.9237 23.4465 14.6068L21.0265 17.7645C20.722 18.1666 20.2576 18.3734 19.7892 18.3734Z" fill="white"/>
<path d="M16.3744 14.8721C16.1753 14.8721 15.9723 14.8331 15.7772 14.7511L9.39536 12.0891C8.603 11.7573 8.22829 10.8479 8.55616 10.0555C8.88794 9.26315 9.79739 8.88844 10.5898 9.21632L16.9716 11.8783C17.7639 12.2101 18.1386 13.1196 17.8108 13.9119C17.561 14.513 16.9833 14.8721 16.3744 14.8721Z" fill="white"/>
<path d="M25.6622 10.5713C25.3304 10.5713 24.9987 10.4659 24.7176 10.2512C24.0346 9.7282 23.9058 8.75239 24.4288 8.06932L30.1471 0.610206C30.6701 -0.0728632 31.6459 -0.201671 32.329 0.321364C33.012 0.8444 33.1409 1.82021 32.6178 2.50328L26.8995 9.9624C26.5912 10.3644 26.1306 10.5713 25.6622 10.5713Z" fill="white"/>
<path d="M11.547 21.9965C11.2152 21.9965 10.8834 21.8911 10.6024 21.6764C9.91932 21.1534 9.79052 20.1776 10.3136 19.4945L12.7297 16.3368C13.2527 15.6537 14.2285 15.5249 14.9116 16.0479C15.5947 16.571 15.7235 17.5468 15.2004 18.2298L12.7843 21.3876C12.4799 21.7857 12.0154 21.9965 11.547 21.9965Z" fill="white"/>
<path fill-rule="evenodd" clip-rule="evenodd" d="M18.0559 10.102C19.9997 10.102 21.5805 8.51729 21.5805 6.57738C21.5805 4.63746 19.9958 3.05664 18.0559 3.05664C16.1121 3.05664 14.5312 4.63746 14.5312 6.57738C14.5312 8.5212 16.1121 10.102 18.0559 10.102Z" fill="white"/>
<path d="M22.7468 29.7242C22.5477 29.7242 22.3448 29.6852 22.1496 29.6032L17.4891 27.6633C16.6967 27.3316 16.322 26.4221 16.6499 25.6297C16.9817 24.8374 17.8911 24.4627 18.6835 24.7905L23.344 26.7304C24.1363 27.0622 24.5111 27.9717 24.1832 28.764C23.9334 29.3651 23.3557 29.7242 22.7468 29.7242Z" fill="white"/>
<path d="M23.3685 24.8292C23.1695 24.8292 22.9665 24.7901 22.7713 24.7082L16.3856 22.05C15.5932 21.7183 15.2185 20.8088 15.5464 20.0165C15.8782 19.2241 16.7876 18.8494 17.58 19.1773L23.9657 21.8354C24.7581 22.1671 25.1328 23.0766 24.8049 23.869C24.559 24.4701 23.9774 24.8292 23.3685 24.8292Z" fill="white"/>
<path d="M23.4644 19.9042C23.2653 19.9042 23.0623 19.8652 22.8672 19.7832L19.1942 18.2532C18.4018 17.9214 18.0271 17.0119 18.355 16.2196C18.6868 15.4272 19.5962 15.0525 20.3886 15.3804L24.0615 16.9105C24.8539 17.2422 25.2286 18.1517 24.9007 18.944C24.6509 19.5451 24.0733 19.9042 23.4644 19.9042Z" fill="white"/>
<path d="M1.5548 42.5C1.22302 42.5 0.89124 42.3946 0.610206 42.1799C-0.0728632 41.6569 -0.201671 40.6811 0.321364 39.998L12.8703 23.6239C13.3934 22.9408 14.3692 22.812 15.0522 23.335C15.7353 23.8581 15.8641 24.8339 15.3411 25.517L2.79213 41.8911C2.48377 42.2892 2.01928 42.5 1.5548 42.5Z" fill="white"/>
<path d="M19.7872 18.3734C19.4554 18.3734 19.1237 18.2681 18.8426 18.0534C18.1596 17.5303 18.0308 16.5545 18.5538 15.8715L20.9738 12.7137C21.4968 12.0307 22.4726 11.9018 23.1557 12.4249C23.8388 12.9479 23.9676 13.9237 23.4446 14.6068L21.0245 17.7645C20.7201 18.1666 20.2556 18.3734 19.7872 18.3734Z" fill="white"/>
<path d="M16.3724 14.8721C16.1734 14.8721 15.9704 14.8331 15.7752 14.7511L9.39341 12.0891C8.60105 11.7573 8.22633 10.8479 8.55421 10.0555C8.88598 9.26315 9.79544 8.88844 10.5878 9.21632L16.9696 11.8783C17.762 12.2101 18.1367 13.1196 17.8088 13.9119C17.559 14.513 16.9813 14.8721 16.3724 14.8721Z" fill="white"/>
<path d="M25.6622 10.5713C25.3304 10.5713 24.9987 10.4659 24.7176 10.2512C24.0346 9.7282 23.9058 8.75239 24.4288 8.06932L30.1471 0.610206C30.6701 -0.0728632 31.6459 -0.201671 32.329 0.321364C33.012 0.8444 33.1409 1.82021 32.6178 2.50328L26.8995 9.9624C26.5912 10.3644 26.1306 10.5713 25.6622 10.5713Z" fill="white"/>
<path d="M11.547 21.9965C11.2152 21.9965 10.8834 21.8911 10.6024 21.6764C9.91932 21.1534 9.79052 20.1776 10.3136 19.4945L12.7297 16.3368C13.2527 15.6537 14.2285 15.5249 14.9116 16.0479C15.5947 16.571 15.7235 17.5468 15.2004 18.2298L12.7843 21.3876C12.4799 21.7857 12.0154 21.9965 11.547 21.9965Z" fill="white"/>
<path d="M48.1715 14.65V18.214H47.3615C47.2895 17.602 47.1215 17.044 46.8575 16.54C46.6055 16.036 46.1135 15.784 45.3815 15.784H42.0515V20.806H44.3915C44.7515 20.806 44.9915 20.668 45.1115 20.392C45.2435 20.116 45.3335 19.72 45.3815 19.204H46.0295V23.524H45.3815C45.3335 23.008 45.2435 22.612 45.1115 22.336C44.9915 22.06 44.7515 21.922 44.3915 21.922H42.0515V25.756C42.0515 26.224 42.3815 26.458 43.0415 26.458H43.5995V27.25H37.1555V26.458H37.7135C38.3735 26.458 38.7035 26.224 38.7035 25.756V16.144C38.7035 15.676 38.3735 15.442 37.7135 15.442H37.1555V14.65H48.1715ZM49.7742 26.458H50.3322C50.9922 26.458 51.3222 26.224 51.3222 25.756V16.144C51.3222 15.676 50.9922 15.442 50.3322 15.442H49.7742V14.65H56.2182V15.442H55.6602C55.0002 15.442 54.6702 15.676 54.6702 16.144V25.756C54.6702 26.224 55.0002 26.458 55.6602 26.458H56.2182V27.25H49.7742V26.458ZM60.4761 26.458H61.0341C61.3821 26.458 61.6341 26.404 61.7901 26.296C61.9461 26.176 62.0241 25.996 62.0241 25.756V15.784H59.7201C59.3721 15.784 59.0901 15.994 58.8741 16.414C58.6701 16.822 58.5261 17.278 58.4421 17.782C58.3581 18.286 58.3161 18.694 58.3161 19.006H57.5061V14.65H69.9081V19.006H69.0981C69.0861 18.682 69.0381 18.268 68.9541 17.764C68.8701 17.26 68.7201 16.804 68.5041 16.396C68.3001 15.988 68.0301 15.784 67.6941 15.784H65.3721V25.756C65.3721 26.224 65.7021 26.458 66.3621 26.458H66.9381V27.25H60.4761V26.458ZM82.1176 14.65V18.214H81.3076C81.2356 17.602 81.0676 17.044 80.8036 16.54C80.5516 16.036 80.0596 15.784 79.3276 15.784H75.9976V20.806H78.3376C78.6976 20.806 78.9376 20.668 79.0576 20.392C79.1896 20.116 79.2796 19.72 79.3276 19.204H79.9756V23.524H79.3276C79.2796 23.008 79.1896 22.612 79.0576 22.336C78.9376 22.06 78.6976 21.922 78.3376 21.922H75.9976V25.756C75.9976 26.224 76.3276 26.458 76.9876 26.458H77.5456V27.25H71.1016V26.458H71.6596C72.3196 26.458 72.6496 26.224 72.6496 25.756V16.144C72.6496 15.676 72.3196 15.442 71.6596 15.442H71.1016V14.65H82.1176ZM90.8663 27.43C89.0183 27.43 87.6023 27.088 86.6183 26.404C85.6463 25.72 85.1603 24.67 85.1603 23.254V16.144C85.1603 15.676 84.8363 15.442 84.1883 15.442H83.6483V14.65H90.0203V15.442H89.4803C88.8323 15.442 88.5083 15.676 88.5083 16.144V23.506C88.5083 24.49 88.8023 25.198 89.3903 25.63C89.9903 26.05 90.7463 26.26 91.6583 26.26C92.5583 26.26 93.3263 26.044 93.9623 25.612C94.5983 25.168 94.9163 24.466 94.9163 23.506V16.144C94.9163 15.676 94.5923 15.442 93.9443 15.442H93.4043V14.65H97.7783V15.442H97.2203C96.5723 15.442 96.2483 15.676 96.2483 16.144V23.254C96.2483 24.61 95.7863 25.648 94.8623 26.368C93.9383 27.076 92.6063 27.43 90.8663 27.43ZM104.502 27.43C103.554 27.43 102.81 27.34 102.27 27.16C101.73 26.98 101.184 26.728 100.632 26.404C100.56 26.368 100.488 26.35 100.416 26.35C100.392 26.35 100.362 26.368 100.326 26.404C100.302 26.428 100.29 26.464 100.29 26.512V27.322H99.2278V23.488H100.164C100.284 24.436 100.686 25.138 101.37 25.594C102.066 26.038 102.84 26.26 103.692 26.26C104.46 26.26 105.084 26.104 105.564 25.792C106.056 25.48 106.302 24.97 106.302 24.262C106.302 23.818 106.17 23.452 105.906 23.164C105.654 22.864 105.336 22.624 104.952 22.444C104.568 22.252 104.034 22.036 103.35 21.796C102.486 21.472 101.79 21.178 101.262 20.914C100.746 20.638 100.302 20.248 99.9298 19.744C99.5578 19.24 99.3718 18.598 99.3718 17.818C99.3718 16.714 99.7978 15.88 100.65 15.316C101.514 14.752 102.696 14.47 104.196 14.47C105.024 14.47 105.69 14.548 106.194 14.704C106.71 14.848 107.19 15.064 107.634 15.352C107.658 15.364 107.706 15.394 107.778 15.442C107.85 15.49 107.916 15.514 107.976 15.514C108.06 15.514 108.102 15.436 108.102 15.28V14.56H109.182V18.394H108.246C108.126 17.446 107.76 16.75 107.148 16.306C106.536 15.862 105.816 15.64 104.988 15.64C104.436 15.64 103.932 15.778 103.476 16.054C103.02 16.33 102.792 16.732 102.792 17.26C102.792 17.656 102.912 17.986 103.152 18.25C103.392 18.514 103.692 18.73 104.052 18.898C104.412 19.066 104.916 19.258 105.564 19.474C106.44 19.774 107.154 20.062 107.706 20.338C108.258 20.614 108.726 21.022 109.11 21.562C109.506 22.102 109.704 22.81 109.704 23.686C109.704 24.97 109.224 25.918 108.264 26.53C107.316 27.13 106.062 27.43 104.502 27.43ZM114.333 26.458H114.891C115.239 26.458 115.491 26.404 115.647 26.296C115.803 26.176 115.881 25.996 115.881 25.756V15.784H113.577C113.229 15.784 112.947 15.994 112.731 16.414C112.527 16.822 112.383 17.278 112.299 17.782C112.215 18.286 112.173 18.694 112.173 19.006H111.363V14.65H123.765V19.006H122.955C122.943 18.682 122.895 18.268 122.811 17.764C122.727 17.26 122.577 16.804 122.361 16.396C122.157 15.988 121.887 15.784 121.551 15.784H119.229V25.756C119.229 26.224 119.559 26.458 120.219 26.458H120.795V27.25H114.333V26.458ZM125.067 26.458H125.625C126.285 26.458 126.615 26.224 126.615 25.756V16.144C126.615 15.676 126.285 15.442 125.625 15.442H125.067V14.65H131.511V15.442H130.953C130.293 15.442 129.963 15.676 129.963 16.144V25.756C129.963 26.224 130.293 26.458 130.953 26.458H131.511V27.25H125.067V26.458ZM139.765 27.43C137.473 27.43 135.757 26.854 134.617 25.702C133.489 24.55 132.925 22.966 132.925 20.95C132.925 18.946 133.489 17.368 134.617 16.216C135.757 15.052 137.473 14.47 139.765 14.47C142.069 14.47 143.785 15.052 144.913 16.216C146.053 17.368 146.623 18.946 146.623 20.95C146.623 22.966 146.053 24.55 144.913 25.702C143.785 26.854 142.069 27.43 139.765 27.43ZM139.747 26.242C140.863 26.242 141.721 25.78 142.321 24.856C142.921 23.932 143.221 22.63 143.221 20.95C143.221 19.27 142.915 17.962 142.303 17.026C141.703 16.09 140.851 15.622 139.747 15.622C138.655 15.622 137.809 16.09 137.209 17.026C136.621 17.962 136.327 19.27 136.327 20.95C136.327 22.63 136.621 23.932 137.209 24.856C137.809 25.78 138.655 26.242 139.747 26.242ZM147.941 26.458H148.517C149.177 26.458 149.507 26.224 149.507 25.756V16.144C149.507 15.676 149.177 15.442 148.517 15.442H147.941V14.65H152.729L158.903 23.182V16.144C158.903 15.676 158.573 15.442 157.913 15.442H157.337V14.65H161.783V15.442H161.207C160.871 15.442 160.625 15.502 160.469 15.622C160.313 15.73 160.235 15.904 160.235 16.144V27.25H158.525L150.839 16.576V25.756C150.839 25.996 150.917 26.176 151.073 26.296C151.229 26.404 151.475 26.458 151.811 26.458H152.387V27.25H147.941V26.458Z" fill="#EFF3FF"/>
</svg>
